<mxfile host="app.diagrams.net" agent="Mozilla/5.0 (Windows NT 10.0; Win64; x64) AppleWebKit/537.36 (KHTML, like Gecko) Chrome/119.0.0.0 Safari/537.36" version="25.0.3">
  <diagram id="C5RBs43oDa-KdzZeNtuy" name="Page-1">
    <mxGraphModel dx="1235" dy="655" grid="1" gridSize="10" guides="1" tooltips="1" connect="1" arrows="1" fold="1" page="1" pageScale="1" pageWidth="827" pageHeight="1169" math="0" shadow="0">
      <root>
        <mxCell id="WIyWlLk6GJQsqaUBKTNV-0" />
        <mxCell id="WIyWlLk6GJQsqaUBKTNV-1" parent="WIyWlLk6GJQsqaUBKTNV-0" />
        <mxCell id="zkfFHV4jXpPFQw0GAbJ--0" value="Board &lt;T&gt;" style="swimlane;fontStyle=2;align=center;verticalAlign=top;childLayout=stackLayout;horizontal=1;startSize=26;horizontalStack=0;resizeParent=1;resizeLast=0;collapsible=1;marginBottom=0;rounded=0;shadow=0;strokeWidth=1;" parent="WIyWlLk6GJQsqaUBKTNV-1" vertex="1">
          <mxGeometry x="10" y="40" width="160" height="138" as="geometry">
            <mxRectangle x="230" y="140" width="160" height="26" as="alternateBounds" />
          </mxGeometry>
        </mxCell>
        <mxCell id="zkfFHV4jXpPFQw0GAbJ--1" value="rows: int                     &#xa;columns: int                         &#xa; board: char**                       &#xa; n_moves: int    " style="text;align=left;verticalAlign=top;spacingLeft=4;spacingRight=4;overflow=hidden;rotatable=0;points=[[0,0.5],[1,0.5]];portConstraint=eastwest;" parent="zkfFHV4jXpPFQw0GAbJ--0" vertex="1">
          <mxGeometry y="26" width="160" height="64" as="geometry" />
        </mxCell>
        <mxCell id="zkfFHV4jXpPFQw0GAbJ--4" value="" style="line;html=1;strokeWidth=1;align=left;verticalAlign=middle;spacingTop=-1;spacingLeft=3;spacingRight=3;rotatable=0;labelPosition=right;points=[];portConstraint=eastwest;" parent="zkfFHV4jXpPFQw0GAbJ--0" vertex="1">
          <mxGeometry y="90" width="160" height="8" as="geometry" />
        </mxCell>
        <mxCell id="II0BN310rsD4F7Uzoq2--2" value="&lt;span style=&quot;font-size:11.0pt;line-height:107%;&lt;br/&gt;font-family:&amp;quot;Calibri&amp;quot;,sans-serif;mso-ascii-theme-font:minor-latin;mso-fareast-font-family:&lt;br/&gt;Calibri;mso-fareast-theme-font:minor-latin;mso-hansi-theme-font:minor-latin;&lt;br/&gt;mso-bidi-font-family:Arial;mso-bidi-theme-font:minor-bidi;mso-ansi-language:&lt;br/&gt;EN-US;mso-fareast-language:EN-US;mso-bidi-language:AR-SA&quot;&gt;virtual methods&lt;/span&gt;" style="text;html=1;align=center;verticalAlign=middle;resizable=0;points=[];autosize=1;strokeColor=none;fillColor=none;" vertex="1" parent="zkfFHV4jXpPFQw0GAbJ--0">
          <mxGeometry y="98" width="160" height="30" as="geometry" />
        </mxCell>
        <mxCell id="zkfFHV4jXpPFQw0GAbJ--6" value="|   P_X_O_Board&lt;T&gt;  " style="swimlane;fontStyle=0;align=center;verticalAlign=top;childLayout=stackLayout;horizontal=1;startSize=26;horizontalStack=0;resizeParent=1;resizeLast=0;collapsible=1;marginBottom=0;rounded=0;shadow=0;strokeWidth=1;" parent="WIyWlLk6GJQsqaUBKTNV-1" vertex="1">
          <mxGeometry x="10" y="280" width="250" height="270" as="geometry">
            <mxRectangle x="130" y="380" width="160" height="26" as="alternateBounds" />
          </mxGeometry>
        </mxCell>
        <mxCell id="zkfFHV4jXpPFQw0GAbJ--9" value="" style="line;html=1;strokeWidth=1;align=left;verticalAlign=middle;spacingTop=-1;spacingLeft=3;spacingRight=3;rotatable=0;labelPosition=right;points=[];portConstraint=eastwest;" parent="zkfFHV4jXpPFQw0GAbJ--6" vertex="1">
          <mxGeometry y="26" width="250" height="54" as="geometry" />
        </mxCell>
        <mxCell id="II0BN310rsD4F7Uzoq2--4" value="&lt;p class=&quot;MsoNormal&quot;&gt;P_X_O_Board()&lt;span style=&quot;mso-spacerun:yes&quot;&gt;&amp;nbsp;&amp;nbsp;&lt;/span&gt;&lt;/p&gt;&lt;p class=&quot;MsoNormal&quot;&gt;update_board(x: int, y: int, symbol: T): bool &lt;/p&gt;&lt;p class=&quot;MsoNormal&quot;&gt;display_board(): void&lt;/p&gt;&lt;p class=&quot;MsoNormal&quot;&gt;&lt;span style=&quot;mso-spacerun:yes&quot;&gt;&amp;nbsp;&lt;/span&gt;is_win(): bool&lt;/p&gt;&lt;p class=&quot;MsoNormal&quot;&gt;&lt;span style=&quot;background-color: initial;&quot;&gt;is_draw(): boo&lt;/span&gt;&lt;/p&gt;&lt;p class=&quot;MsoNormal&quot;&gt;&lt;span style=&quot;font-family: Calibri, sans-serif; font-size: 11pt; background-color: initial;&quot;&gt;game_is_over(): bool &lt;/span&gt;&lt;span style=&quot;font-family: Calibri, sans-serif; font-size: 11pt; background-color: initial;&quot;&gt;&amp;nbsp;&lt;/span&gt;&lt;/p&gt;" style="text;html=1;align=left;verticalAlign=middle;resizable=0;points=[];autosize=1;strokeColor=none;fillColor=none;" vertex="1" parent="zkfFHV4jXpPFQw0GAbJ--6">
          <mxGeometry y="80" width="250" height="190" as="geometry" />
        </mxCell>
        <mxCell id="zkfFHV4jXpPFQw0GAbJ--12" value="" style="endArrow=block;endSize=10;endFill=0;shadow=0;strokeWidth=1;rounded=0;curved=0;edgeStyle=elbowEdgeStyle;elbow=vertical;" parent="WIyWlLk6GJQsqaUBKTNV-1" source="zkfFHV4jXpPFQw0GAbJ--6" target="zkfFHV4jXpPFQw0GAbJ--0" edge="1">
          <mxGeometry width="160" relative="1" as="geometry">
            <mxPoint x="200" y="203" as="sourcePoint" />
            <mxPoint x="200" y="203" as="targetPoint" />
          </mxGeometry>
        </mxCell>
        <mxCell id="zkfFHV4jXpPFQw0GAbJ--13" value="Player&lt;T&gt;     " style="swimlane;fontStyle=0;align=center;verticalAlign=top;childLayout=stackLayout;horizontal=1;startSize=26;horizontalStack=0;resizeParent=1;resizeLast=0;collapsible=1;marginBottom=0;rounded=0;shadow=0;strokeWidth=1;" parent="WIyWlLk6GJQsqaUBKTNV-1" vertex="1">
          <mxGeometry x="680" y="26" width="310" height="240" as="geometry">
            <mxRectangle x="340" y="380" width="170" height="26" as="alternateBounds" />
          </mxGeometry>
        </mxCell>
        <mxCell id="zkfFHV4jXpPFQw0GAbJ--14" value="name: string  &#xa;symbol: T   &#xa; board&lt;T&gt;* boardPtr" style="text;align=left;verticalAlign=top;spacingLeft=4;spacingRight=4;overflow=hidden;rotatable=0;points=[[0,0.5],[1,0.5]];portConstraint=eastwest;" parent="zkfFHV4jXpPFQw0GAbJ--13" vertex="1">
          <mxGeometry y="26" width="310" height="54" as="geometry" />
        </mxCell>
        <mxCell id="zkfFHV4jXpPFQw0GAbJ--15" value="" style="line;html=1;strokeWidth=1;align=left;verticalAlign=middle;spacingTop=-1;spacingLeft=3;spacingRight=3;rotatable=0;labelPosition=right;points=[];portConstraint=eastwest;" parent="zkfFHV4jXpPFQw0GAbJ--13" vertex="1">
          <mxGeometry y="80" width="310" height="18" as="geometry" />
        </mxCell>
        <mxCell id="II0BN310rsD4F7Uzoq2--10" value="&lt;div style=&quot;text-align: left;&quot;&gt;&lt;span style=&quot;font-size: 14.6667px; background-color: initial;&quot;&gt;player (n:string ,symbol:T)&lt;/span&gt;&lt;/div&gt;&lt;div style=&quot;text-align: left;&quot;&gt;&lt;span style=&quot;font-size: 14.6667px; background-color: initial;&quot;&gt;player( symbol:T)&lt;/span&gt;&lt;/div&gt;&lt;div style=&quot;text-align: left;&quot;&gt;virtual&amp;nbsp;&lt;span style=&quot;font-size: 14.6667px; background-color: initial; text-align: center;&quot;&gt;getmove(x: int&amp;amp;,y: int&amp;amp;): void&lt;/span&gt;&lt;/div&gt;&lt;div style=&quot;text-align: left;&quot;&gt;&lt;span style=&quot;font-size: 14.6667px; background-color: initial; text-align: center;&quot;&gt;getsymbol ():T&lt;/span&gt;&lt;/div&gt;&lt;div style=&quot;text-align: left;&quot;&gt;&lt;span style=&quot;font-size: 14.6667px; background-color: initial; text-align: center;&quot;&gt;&amp;nbsp;getname():string&amp;nbsp;&lt;/span&gt;&lt;/div&gt;&lt;div style=&quot;text-align: left;&quot;&gt;&lt;span style=&quot;font-size: 14.6667px; background-color: initial; text-align: center;&quot;&gt;setBoard(b:Board&amp;lt;T&amp;gt;*) void&lt;/span&gt;&lt;/div&gt;&lt;div style=&quot;text-align: left;&quot;&gt;&lt;span style=&quot;font-size: 14.6667px; background-color: initial; text-align: center;&quot;&gt;&amp;nbsp; &amp;nbsp; &amp;nbsp; &amp;nbsp;&lt;/span&gt;&lt;/div&gt;" style="text;html=1;align=center;verticalAlign=middle;resizable=0;points=[];autosize=1;strokeColor=none;fillColor=none;" vertex="1" parent="zkfFHV4jXpPFQw0GAbJ--13">
          <mxGeometry y="98" width="310" height="140" as="geometry" />
        </mxCell>
        <mxCell id="II0BN310rsD4F7Uzoq2--5" style="edgeStyle=orthogonalEdgeStyle;rounded=0;orthogonalLoop=1;jettySize=auto;html=1;exitX=0.5;exitY=0;exitDx=0;exitDy=0;entryX=0.5;entryY=1;entryDx=0;entryDy=0;" edge="1" parent="WIyWlLk6GJQsqaUBKTNV-1" source="zkfFHV4jXpPFQw0GAbJ--17" target="zkfFHV4jXpPFQw0GAbJ--13">
          <mxGeometry relative="1" as="geometry" />
        </mxCell>
        <mxCell id="zkfFHV4jXpPFQw0GAbJ--17" value="P_X_O_Player&lt;T&gt;  " style="swimlane;fontStyle=0;align=center;verticalAlign=top;childLayout=stackLayout;horizontal=1;startSize=26;horizontalStack=0;resizeParent=1;resizeLast=0;collapsible=1;marginBottom=0;rounded=0;shadow=0;strokeWidth=1;" parent="WIyWlLk6GJQsqaUBKTNV-1" vertex="1">
          <mxGeometry x="660" y="350" width="260" height="122" as="geometry">
            <mxRectangle x="550" y="140" width="160" height="26" as="alternateBounds" />
          </mxGeometry>
        </mxCell>
        <mxCell id="zkfFHV4jXpPFQw0GAbJ--18" value="-&#xa;" style="text;align=left;verticalAlign=top;spacingLeft=4;spacingRight=4;overflow=hidden;rotatable=0;points=[[0,0.5],[1,0.5]];portConstraint=eastwest;" parent="zkfFHV4jXpPFQw0GAbJ--17" vertex="1">
          <mxGeometry y="26" width="260" height="26" as="geometry" />
        </mxCell>
        <mxCell id="zkfFHV4jXpPFQw0GAbJ--23" value="" style="line;html=1;strokeWidth=1;align=left;verticalAlign=middle;spacingTop=-1;spacingLeft=3;spacingRight=3;rotatable=0;labelPosition=right;points=[];portConstraint=eastwest;" parent="zkfFHV4jXpPFQw0GAbJ--17" vertex="1">
          <mxGeometry y="52" width="260" height="8" as="geometry" />
        </mxCell>
        <mxCell id="zkfFHV4jXpPFQw0GAbJ--24" value=" P_X_O_Player(name: string, symbol: T) " style="text;align=left;verticalAlign=top;spacingLeft=4;spacingRight=4;overflow=hidden;rotatable=0;points=[[0,0.5],[1,0.5]];portConstraint=eastwest;" parent="zkfFHV4jXpPFQw0GAbJ--17" vertex="1">
          <mxGeometry y="60" width="260" height="26" as="geometry" />
        </mxCell>
        <mxCell id="II0BN310rsD4F7Uzoq2--11" value="&lt;span style=&quot;font-size:11.0pt;line-height:107%;&lt;br/&gt;font-family:&amp;quot;Calibri&amp;quot;,sans-serif;mso-ascii-theme-font:minor-latin;mso-fareast-font-family:&lt;br/&gt;Calibri;mso-fareast-theme-font:minor-latin;mso-hansi-theme-font:minor-latin;&lt;br/&gt;mso-bidi-font-family:Arial;mso-bidi-theme-font:minor-bidi;mso-ansi-language:&lt;br/&gt;EN-US;mso-fareast-language:EN-US;mso-bidi-language:AR-SA&quot;&gt;getmove(x: int&amp;amp;,y: int&amp;amp;): void&amp;nbsp; &amp;nbsp; &amp;nbsp; &amp;nbsp;&lt;/span&gt;" style="text;html=1;align=center;verticalAlign=middle;resizable=0;points=[];autosize=1;strokeColor=none;fillColor=none;" vertex="1" parent="zkfFHV4jXpPFQw0GAbJ--17">
          <mxGeometry y="86" width="260" height="30" as="geometry" />
        </mxCell>
        <mxCell id="II0BN310rsD4F7Uzoq2--25" style="edgeStyle=orthogonalEdgeStyle;rounded=0;orthogonalLoop=1;jettySize=auto;html=1;exitX=0.5;exitY=0;exitDx=0;exitDy=0;entryX=0.5;entryY=1;entryDx=0;entryDy=0;" edge="1" parent="WIyWlLk6GJQsqaUBKTNV-1" source="II0BN310rsD4F7Uzoq2--7" target="II0BN310rsD4F7Uzoq2--13">
          <mxGeometry relative="1" as="geometry" />
        </mxCell>
        <mxCell id="II0BN310rsD4F7Uzoq2--7" value="&lt;span style=&quot;font-size:11.0pt;line-height:107%;&lt;br/&gt;font-family:&amp;quot;Calibri&amp;quot;,sans-serif;mso-ascii-theme-font:minor-latin;mso-fareast-font-family:&lt;br/&gt;Calibri;mso-fareast-theme-font:minor-latin;mso-hansi-theme-font:minor-latin;&lt;br/&gt;mso-bidi-font-family:Arial;mso-bidi-theme-font:minor-bidi;mso-ansi-language:&lt;br/&gt;EN-US;mso-fareast-language:EN-US;mso-bidi-language:AR-SA&quot;&gt;P_X_O_Random_Player&amp;lt;T&amp;gt;&amp;nbsp;&amp;nbsp;&lt;/span&gt;" style="swimlane;whiteSpace=wrap;html=1;" vertex="1" parent="WIyWlLk6GJQsqaUBKTNV-1">
          <mxGeometry x="307.5" y="510" width="265" height="170" as="geometry" />
        </mxCell>
        <mxCell id="II0BN310rsD4F7Uzoq2--20" value="&lt;span style=&quot;font-size:11.0pt;line-height:107%;&lt;br/&gt;font-family:&amp;quot;Calibri&amp;quot;,sans-serif;mso-ascii-theme-font:minor-latin;mso-fareast-font-family:&lt;br/&gt;Calibri;mso-fareast-theme-font:minor-latin;mso-hansi-theme-font:minor-latin;&lt;br/&gt;mso-bidi-font-family:Arial;mso-bidi-theme-font:minor-bidi;mso-ansi-language:&lt;br/&gt;EN-US;mso-fareast-language:EN-US;mso-bidi-language:AR-SA&quot;&gt;&amp;nbsp;P_X_O_Random_Player(symbol: T)&amp;nbsp; &amp;nbsp;&lt;/span&gt;" style="text;html=1;align=center;verticalAlign=middle;resizable=0;points=[];autosize=1;strokeColor=none;fillColor=none;" vertex="1" parent="II0BN310rsD4F7Uzoq2--7">
          <mxGeometry x="-5" y="50" width="270" height="30" as="geometry" />
        </mxCell>
        <mxCell id="II0BN310rsD4F7Uzoq2--21" value="&lt;span style=&quot;font-size:11.0pt;line-height:107%;&lt;br/&gt;font-family:&amp;quot;Calibri&amp;quot;,sans-serif;mso-ascii-theme-font:minor-latin;mso-fareast-font-family:&lt;br/&gt;Calibri;mso-fareast-theme-font:minor-latin;mso-hansi-theme-font:minor-latin;&lt;br/&gt;mso-bidi-font-family:Arial;mso-bidi-theme-font:minor-bidi;mso-ansi-language:&lt;br/&gt;EN-US;mso-fareast-language:EN-US;mso-bidi-language:AR-SA&quot;&gt;getmove(x: int&amp;amp;,y: int&amp;amp;): void&amp;nbsp; &amp;nbsp; &amp;nbsp; &amp;nbsp;&lt;/span&gt;" style="text;html=1;align=center;verticalAlign=middle;resizable=0;points=[];autosize=1;strokeColor=none;fillColor=none;" vertex="1" parent="II0BN310rsD4F7Uzoq2--7">
          <mxGeometry y="100" width="260" height="30" as="geometry" />
        </mxCell>
        <mxCell id="II0BN310rsD4F7Uzoq2--28" value="" style="endArrow=none;html=1;rounded=0;entryX=1;entryY=0.25;entryDx=0;entryDy=0;exitX=0.023;exitY=-0.142;exitDx=0;exitDy=0;exitPerimeter=0;" edge="1" parent="II0BN310rsD4F7Uzoq2--7" source="II0BN310rsD4F7Uzoq2--20" target="II0BN310rsD4F7Uzoq2--7">
          <mxGeometry width="50" height="50" relative="1" as="geometry">
            <mxPoint x="102.5" y="90" as="sourcePoint" />
            <mxPoint x="152.5" y="40" as="targetPoint" />
          </mxGeometry>
        </mxCell>
        <mxCell id="II0BN310rsD4F7Uzoq2--13" value="RandomPlayer&lt;T&gt;     " style="swimlane;fontStyle=0;align=center;verticalAlign=top;childLayout=stackLayout;horizontal=1;startSize=26;horizontalStack=0;resizeParent=1;resizeLast=0;collapsible=1;marginBottom=0;rounded=0;shadow=0;strokeWidth=1;" vertex="1" parent="WIyWlLk6GJQsqaUBKTNV-1">
          <mxGeometry x="300" y="300" width="260" height="150" as="geometry">
            <mxRectangle x="340" y="380" width="170" height="26" as="alternateBounds" />
          </mxGeometry>
        </mxCell>
        <mxCell id="II0BN310rsD4F7Uzoq2--14" value="name: string  &#xa;symbol: T       " style="text;align=left;verticalAlign=top;spacingLeft=4;spacingRight=4;overflow=hidden;rotatable=0;points=[[0,0.5],[1,0.5]];portConstraint=eastwest;" vertex="1" parent="II0BN310rsD4F7Uzoq2--13">
          <mxGeometry y="26" width="260" height="34" as="geometry" />
        </mxCell>
        <mxCell id="II0BN310rsD4F7Uzoq2--15" value="" style="line;html=1;strokeWidth=1;align=left;verticalAlign=middle;spacingTop=-1;spacingLeft=3;spacingRight=3;rotatable=0;labelPosition=right;points=[];portConstraint=eastwest;" vertex="1" parent="II0BN310rsD4F7Uzoq2--13">
          <mxGeometry y="60" width="260" height="18" as="geometry" />
        </mxCell>
        <mxCell id="II0BN310rsD4F7Uzoq2--16" value="&lt;span style=&quot;font-size:11.0pt;line-height:107%;&lt;br/&gt;font-family:&amp;quot;Calibri&amp;quot;,sans-serif;mso-ascii-theme-font:minor-latin;mso-fareast-font-family:&lt;br/&gt;Calibri;mso-fareast-theme-font:minor-latin;mso-hansi-theme-font:minor-latin;&lt;br/&gt;mso-bidi-font-family:Arial;mso-bidi-theme-font:minor-bidi;mso-ansi-language:&lt;br/&gt;EN-US;mso-fareast-language:EN-US;mso-bidi-language:AR-SA&quot;&gt;RandomPlayer(symbol:t)&lt;/span&gt;&lt;div&gt;&lt;span style=&quot;font-size:11.0pt;line-height:107%;&lt;br/&gt;font-family:&amp;quot;Calibri&amp;quot;,sans-serif;mso-ascii-theme-font:minor-latin;mso-fareast-font-family:&lt;br/&gt;Calibri;mso-fareast-theme-font:minor-latin;mso-hansi-theme-font:minor-latin;&lt;br/&gt;mso-bidi-font-family:Arial;mso-bidi-theme-font:minor-bidi;mso-ansi-language:&lt;br/&gt;EN-US;mso-fareast-language:EN-US;mso-bidi-language:AR-SA&quot;&gt;virtual&amp;nbsp;&lt;/span&gt;&lt;span style=&quot;font-size: 14.6667px; background-color: initial;&quot;&gt;getmove(x: int&amp;amp;,y: int&amp;amp;): void&amp;nbsp; &amp;nbsp; &amp;nbsp; &amp;nbsp;&lt;/span&gt;&lt;/div&gt;" style="text;html=1;align=center;verticalAlign=middle;resizable=0;points=[];autosize=1;strokeColor=none;fillColor=none;" vertex="1" parent="II0BN310rsD4F7Uzoq2--13">
          <mxGeometry y="78" width="260" height="50" as="geometry" />
        </mxCell>
        <mxCell id="II0BN310rsD4F7Uzoq2--24" value="pyramid tic tac toe" style="label;whiteSpace=wrap;html=1;image=img/clipart/Gear_128x128.png;fillColor=#f8cecc;strokeColor=#b85450;" vertex="1" parent="WIyWlLk6GJQsqaUBKTNV-1">
          <mxGeometry x="670" y="555" width="196" height="60" as="geometry" />
        </mxCell>
        <mxCell id="II0BN310rsD4F7Uzoq2--26" value="game manger" style="swimlane;whiteSpace=wrap;html=1;" vertex="1" parent="WIyWlLk6GJQsqaUBKTNV-1">
          <mxGeometry x="236" y="66" width="374" height="200" as="geometry" />
        </mxCell>
        <mxCell id="II0BN310rsD4F7Uzoq2--32" value="board &amp;lt;T&amp;gt; * boardPtr&lt;div&gt;player&amp;lt;T&amp;gt;*PLayers[2]&lt;/div&gt;" style="text;html=1;align=center;verticalAlign=middle;resizable=0;points=[];autosize=1;strokeColor=none;fillColor=none;" vertex="1" parent="II0BN310rsD4F7Uzoq2--26">
          <mxGeometry x="4" y="29" width="140" height="40" as="geometry" />
        </mxCell>
        <mxCell id="II0BN310rsD4F7Uzoq2--33" value="game manger(Board &amp;lt;T&amp;gt;*,Player&amp;lt;T&amp;gt; playerPtr[2])" style="text;html=1;align=center;verticalAlign=middle;resizable=0;points=[];autosize=1;strokeColor=none;fillColor=none;" vertex="1" parent="II0BN310rsD4F7Uzoq2--26">
          <mxGeometry y="112" width="290" height="30" as="geometry" />
        </mxCell>
        <mxCell id="II0BN310rsD4F7Uzoq2--34" value="run():void&lt;div&gt;&lt;br&gt;&lt;/div&gt;" style="text;html=1;align=center;verticalAlign=middle;resizable=0;points=[];autosize=1;strokeColor=none;fillColor=none;" vertex="1" parent="II0BN310rsD4F7Uzoq2--26">
          <mxGeometry x="14" y="142" width="70" height="40" as="geometry" />
        </mxCell>
        <mxCell id="II0BN310rsD4F7Uzoq2--31" value="" style="endArrow=none;html=1;rounded=0;exitX=0;exitY=0.5;exitDx=0;exitDy=0;entryX=1;entryY=0.5;entryDx=0;entryDy=0;" edge="1" parent="WIyWlLk6GJQsqaUBKTNV-1" source="II0BN310rsD4F7Uzoq2--26" target="II0BN310rsD4F7Uzoq2--26">
          <mxGeometry width="50" height="50" relative="1" as="geometry">
            <mxPoint x="270" y="160" as="sourcePoint" />
            <mxPoint x="470" y="110" as="targetPoint" />
          </mxGeometry>
        </mxCell>
      </root>
    </mxGraphModel>
  </diagram>
</mxfile>
